<svg xmlns="http://www.w3.org/2000/svg" version="1.1" xmlns:xlink="http://www.w3.org/1999/xlink" width="512px" height="512px" style="shape-rendering:geometricPrecision; text-rendering:geometricPrecision; image-rendering:optimizeQuality; fill-rule:evenodd; clip-rule:evenodd"><metadata><rdf:RDF xmlns:rdf="http://www.w3.org/1999/02/22-rdf-syntax-ns#" xmlns:dc="http://purl.org/dc/elements/1.1/"><rdf:Description><dc:creator>RealFaviconGenerator</dc:creator><dc:source>https://realfavicongenerator.net</dc:source></rdf:Description></rdf:RDF></metadata><metadata><rdf:rdf xmlns:rdf="http://www.w3.org/1999/02/22-rdf-syntax-ns#" xmlns:dc="http://purl.org/dc/elements/1.1/"><rdf:description><dc:creator>RealFaviconGenerator</dc:creator><dc:source>https://realfavicongenerator.net</dc:source></rdf:description></rdf:rdf></metadata><g><path fill="#ffe07d" stroke="#ffe07d" stroke-width="0.5" d="M 266.21,9.89 c 0.94,2.22 2.52,3.79 4.75,4.71 c 63.61,7.43 114.16,50.75 129.81,113.05 c 2.75,6.9 0.41,22.52 11.41,21.53 c 0.48,6.6 0.8,13.21 0.96,19.82 c -12.24,-0.12 -8.3,17.35 -11.37,25.35 c -10.19,44.21 -34.8,76.24 -73.31,99.6 c -18.35,13.68 -12.75,35.78 -13.56,55.55 c -0.2,1.32 -1,1.84 -2.38,1.54 c -9.35,-0.01 -18.7,-0.01 -28.05,0 c -0.96,-0.05 -1.45,-0.56 -1.46,-1.52 c -0.08,-20.29 0.01,-40.58 0.25,-60.86 c 1.38,-7.46 12.05,-17.05 15.92,-24.01 c 2.89,-5 4.3,-10.38 4.24,-16.15 c 0,-17.57 0.01,-35.13 0.04,-52.7 c 0.16,-0.46 0.46,-0.79 0.91,-0.97 c 9.03,-2.14 8.59,-13.4 -0.44,-15.3 c -1.32,-3.13 -1.09,-5.51 -4.58,-7.25 c -6.94,-2.85 -9.37,1.46 -11.41,7.11 c -0.43,0.34 -0.91,0.49 -1.46,0.44 c -20.64,0.01 -41.26,-0.02 -61.89,-0.08 c -0.49,-0.01 -0.87,-0.21 -1.14,-0.61 c -0.52,-10.06 -12.47,-10.6 -15.55,0.2 c -0.92,0.54 -1.91,0.95 -2.96,1.22 c -6.71,3.84 -4.84,12.6 2.69,14.36 c 0.37,0.43 0.56,0.94 0.58,1.52 c -0.03,18.29 0.02,36.59 0.16,54.88 c 0.65,17.61 19.61,26.13 20.44,40.18 c 0.03,6.18 0.03,12.36 0,18.54 c -5.34,-9.38 -13.7,-13.15 -22.1,-19.13 c -111.29,-80.96 -74.33,-252.31 59.5,-281.02 Z M 303.81,56 c -0.12,2.44 0.76,4.45 2.63,6.02 c 30.34,15.96 49.32,37.81 58.93,71.04 c 3.78,8.5 15.11,5.48 14.49,-3.54 c -9.14,-33.06 -28.43,-58.38 -57.89,-75.96 c -5.52,-4.06 -17.31,-8.62 -18.16,2.44 Z M 223.26,198 c -0.09,-1.94 -0.22,-3.31 2.22,-3.18 c 20.36,0.01 40.71,0 61.07,-0.01 c 0.64,-0.04 1.17,0.19 1.57,0.69 c 0.24,16.99 0.33,33.99 0.25,51 c 1.81,14.62 -19.03,24.39 -20.18,41.02 c -0.2,20.67 -0.26,41.33 -0.18,62 c 0.04,0.58 -0.17,1.03 -0.63,1.36 c -7.3,0.15 -14.6,0.2 -21.91,0.16 c -0.59,0.05 -1.07,-0.16 -1.42,-0.63 c -0.14,-20.57 -0.25,-41.16 -0.36,-61.74 c -0.75,-17.57 -20.86,-26.36 -20.43,-41.17 c 0.01,-16.5 0.01,-33 0,-49.5 Z"></path></g><g><path fill="#000000" stroke="#000000" stroke-width="0.5" d="M 234.04,0 c 2.3,0 4.61,0 6.91,0 c 2.34,1.89 4.66,3.63 4.89,6.96 c 0.41,10.52 -14.32,8.04 -21.16,10.36 c -79.26,17.27 -129.97,93.14 -115.45,173.14 c 8.17,40.07 28.9,71.97 62.19,95.7 c 13.75,8.19 23.39,15.15 25.46,32.34 c 0.05,10.63 0.13,21.26 0.24,31.88 c 0.32,0.48 0.77,0.7 1.35,0.66 c 9.68,0.01 19.36,-0.01 29.04,-0.05 c 0.54,0 0.95,-0.23 1.22,-0.69 c 0.11,-13.42 0.13,-26.83 0.08,-40.26 c 0.03,-6.18 0.03,-12.36 0,-18.54 c -0.83,-14.05 -19.79,-22.57 -20.44,-40.18 c -0.14,-18.29 -0.19,-36.59 -0.16,-54.88 c -0.02,-0.58 -0.21,-1.09 -0.58,-1.52 c -7.53,-1.76 -9.4,-10.52 -2.69,-14.36 c 1.05,-0.27 2.04,-0.68 2.96,-1.22 c 3.08,-10.8 15.03,-10.26 15.55,-0.2 c 0.27,0.4 0.65,0.6 1.14,0.61 c 20.63,0.06 41.25,0.09 61.89,0.08 c 0.55,0.05 1.03,-0.1 1.46,-0.44 c 2.04,-5.65 4.47,-9.96 11.41,-7.11 c 3.49,1.74 3.26,4.12 4.58,7.25 c 9.03,1.9 9.47,13.16 0.44,15.3 c -0.45,0.18 -0.75,0.51 -0.91,0.97 c -0.03,17.57 -0.04,35.13 -0.04,52.7 c 0.06,5.77 -1.35,11.15 -4.24,16.15 c -3.87,6.96 -14.54,16.55 -15.92,24.01 c -0.24,20.28 -0.33,40.57 -0.25,60.86 c 0.01,0.96 0.5,1.47 1.46,1.52 c 9.35,-0.01 18.7,-0.01 28.05,0 c 1.38,0.3 2.18,-0.22 2.38,-1.54 c 0.81,-19.77 -4.79,-41.87 13.56,-55.55 c 38.51,-23.36 63.12,-55.39 73.31,-99.6 c 3.07,-8 -0.87,-25.47 11.37,-25.35 c 11.39,4.18 3.91,18.68 3.59,27.34 c -11.27,49.6 -37.63,83.87 -80.31,110.58 c -11.25,8.96 -4.82,34.7 -6.45,47.6 c 0.07,0.55 0.27,1.05 0.61,1.49 c 9.93,8.17 9.31,29.03 3.04,38.96 c 1.01,2.22 2.02,4.46 3.04,6.71 c 1.85,9.17 2.91,23.9 -4.4,31.26 c -1.73,1.6 -3.51,3.13 -5.35,4.58 c 0.2,2.32 0.49,4.65 0.86,6.98 c 0.84,14.68 -0.5,27.67 -17.27,31.42 c -5,0.16 -10,0.21 -15,0.15 c -0.57,-0.05 -1.06,0.11 -1.48,0.49 c -0.61,2.21 -1.08,4.46 -1.43,6.74 c -3.97,14.77 -14.96,25.21 -30.04,28 c -0.32,0.14 -0.51,0.37 -0.58,0.7 c -3.98,0 -7.95,0 -11.92,0 c -0.27,-0.92 -6.12,-1.44 -7.33,-2.41 c -14.34,-6 -22.55,-16.7 -24.61,-32.11 c -0.03,-0.57 -0.29,-1 -0.77,-1.29 c -15.46,-0.29 -31.69,0.62 -33.28,-19.69 c -0.04,-4.33 -0.03,-8.67 0.02,-13.01 c 0.35,-1.97 0.63,-3.94 0.85,-5.91 c -1.61,-1.38 -3.25,-2.74 -4.91,-4.11 c -9.16,-9.52 -7.37,-27.17 -1.96,-38.01 c 0.08,-1.15 -3.97,-7.32 -3.82,-10 c -0.23,-10.61 -2.2,-21.91 7.04,-29.53 c 1.48,-2.21 0.65,-30.58 0.63,-35.44 c -0.4,-14.92 -17.05,-18.78 -26.46,-27.38 c -107.78,-84.88 -72.77,-252.82 59.21,-288.84 c 6.36,-1.43 12.28,-3.08 18.74,-3.61 c 0.32,-0.12 0.53,-0.34 0.64,-0.66 Z M 271.04,0 c 2.31,0 4.62,0 6.93,0 c 0.1,0.33 0.31,0.54 0.65,0.64 c 73.53,10.72 129.8,67.21 139.93,140.86 c -0.23,4.13 -2.36,6.69 -6.37,7.68 c -11,0.99 -8.66,-14.63 -11.41,-21.53 c -15.65,-62.3 -66.2,-105.62 -129.81,-113.05 c -2.23,-0.92 -3.81,-2.49 -4.75,-4.71 c -0.14,-1 -0.29,-2 -0.45,-3 c 0.07,-0.37 0.14,-0.74 0.21,-1.12 c 1.14,-3.08 2.62,-3.94 5.07,-5.77 Z M 303.81,56 c 0.85,-11.06 12.64,-6.5 18.16,-2.44 c 29.46,17.58 48.75,42.9 57.89,75.96 c 0.62,9.02 -10.71,12.04 -14.49,3.54 c -9.61,-33.23 -28.59,-55.08 -58.93,-71.04 c -1.87,-1.57 -2.75,-3.58 -2.63,-6.02 Z M 46.78,95.35 c 1.47,0.58 3,0.8 4.59,0.68 c 0.43,0.02 0.86,0.03 1.3,0.04 c 0.42,0.51 0.95,0.84 1.6,1 c 0.17,0.04 0.35,0.07 0.52,0.11 c 0.68,0.72 1.52,0.96 2.53,0.73 c 0.14,0.04 0.28,0.07 0.42,0.1 c 0.41,0.55 0.95,0.85 1.64,0.89 c 0.46,0.1 0.91,0.16 1.37,0.21 c 0.42,0.51 0.95,0.85 1.6,1 c 1.13,0.22 2.23,0.54 3.3,0.97 c 0.41,0.5 0.93,0.85 1.56,1.03 c 0.2,0.05 0.4,0.1 0.6,0.14 c 0.68,0.59 1.49,0.9 2.43,0.93 c 1.19,0.23 2.37,0.53 3.52,0.9 c 0.39,0.52 0.9,0.84 1.55,0.94 c 0.79,0.24 1.55,0.55 2.27,0.95 c 0.34,0.72 0.89,1.16 1.67,1.33 c -0.18,0.27 -0.36,0.53 -0.54,0.8 c 0.28,0.44 0.66,0.79 1.13,1.03 c 0.08,0.19 0.15,0.37 0.22,0.56 c -0.03,1.53 -0.06,3.06 -0.09,4.59 c -0.1,0.21 -0.2,0.42 -0.3,0.62 c -0.3,0.27 -0.5,0.6 -0.61,0.99 c -0.06,0.39 -0.11,0.79 -0.17,1.19 c -0.48,0.09 -0.77,0.37 -0.89,0.84 c -0.4,0.07 -0.79,0.14 -1.19,0.2 c -0.33,0.1 -0.54,0.31 -0.64,0.64 c -0.44,0.12 -0.88,0.25 -1.32,0.37 c -1.72,-0.04 -3.44,-0.05 -5.16,-0.04 c -0.18,-0.01 -0.35,-0.02 -0.53,-0.03 c -0.31,-0.62 -0.81,-1.02 -1.5,-1.19 c -0.17,-0.05 -0.35,-0.1 -0.53,-0.16 c -0.64,-0.58 -1.42,-0.84 -2.34,-0.76 c -1.18,-0.25 -2.33,-0.56 -3.47,-0.95 c -0.4,-0.55 -0.94,-0.92 -1.61,-1.09 c -0.2,-0.05 -0.4,-0.1 -0.6,-0.15 c -0.62,-0.66 -1.4,-0.98 -2.35,-0.96 c -0.93,-0.25 -1.85,-0.52 -2.78,-0.8 c -0.43,-0.86 -1.11,-1.1 -2.05,-0.73 c -0.18,-0.08 -0.36,-0.15 -0.54,-0.22 c -0.67,-0.83 -1.55,-1.16 -2.62,-0.99 c -0.16,-0.05 -0.32,-0.09 -0.48,-0.14 c -0.41,-0.51 -0.93,-0.84 -1.57,-0.99 c -0.9,-0.07 -1.7,-0.39 -2.4,-0.97 c -0.39,-0.46 -0.83,-0.85 -1.33,-1.18 c -3.79,-4.62 -1.66,-10.47 3.79,-12.43 Z M 460.64,95.93 c 1.8,-0.12 3.59,-0.04 5.37,0.25 c 0.2,-0.13 0.4,-0.27 0.6,-0.4 c 0.28,0.65 0.75,1.11 1.4,1.38 c 0.22,0.35 0.49,0.65 0.82,0.9 c 0.34,0.57 0.8,1.02 1.38,1.34 c -0.15,0.16 -0.29,0.31 -0.44,0.47 c 0.53,2.05 0.51,4.11 -0.05,6.16 c 0.19,0.2 0.38,0.4 0.57,0.61 c -0.65,0.27 -1.1,0.73 -1.37,1.38 c -0.48,0.09 -0.79,0.37 -0.93,0.84 c -0.39,0.06 -0.79,0.11 -1.18,0.17 c -0.4,0.1 -0.66,0.34 -0.79,0.74 c -0.67,0.18 -1.09,0.61 -1.26,1.27 c -0.45,-0.05 -0.9,-0.08 -1.36,-0.08 c -1.1,-0.13 -2.02,0.2 -2.77,0.98 c -0.2,-0.06 -0.41,-0.12 -0.62,-0.18 c -0.57,0.26 -0.96,0.68 -1.16,1.28 c -0.22,-0.01 -0.45,-0.02 -0.67,-0.03 c -0.69,0.06 -1.2,0.38 -1.54,0.98 c -0.46,-0.01 -0.93,-0.01 -1.4,0 c -0.94,-0.15 -1.7,0.12 -2.27,0.8 c -0.26,0.03 -0.53,0.05 -0.79,0.07 c -0.64,0.1 -1.04,0.46 -1.2,1.07 c -0.23,0.01 -0.47,0.03 -0.7,0.04 c -0.67,0.05 -2.21,-0.17 -2.24,0.85 c -0.24,0.04 -0.48,0.08 -0.73,0.12 c -0.63,0.1 -1.16,0.39 -1.59,0.85 c -0.44,0.13 -0.89,0.2 -1.34,0.21 c -0.81,-0.03 -2.41,0.08 -2.04,1.34 c -1.86,-0.38 -3.73,-0.48 -5.63,-0.3 c -1.58,-0.29 -2.83,-1.11 -3.77,-2.46 c -8.74,-13 20.7,-16.69 27.7,-20.65 Z M 65.66,151.95 c 0.38,0.55 0.9,0.93 1.55,1.13 c 0.76,0.35 1.35,0.89 1.79,1.65 c 0.09,0.62 0.41,1.07 0.95,1.37 c 0.02,0.17 0.04,0.35 0.06,0.52 c 0.04,0.48 0.09,0.97 0.13,1.45 c -0.1,1.08 -0.13,2.16 -0.1,3.24 c -0.11,0.23 -0.22,0.45 -0.33,0.68 c -0.27,0.21 -0.48,0.48 -0.62,0.79 c -0.03,0.41 -0.06,0.82 -0.09,1.23 c -0.5,0.15 -0.83,0.47 -0.98,0.98 c -0.75,0.13 -1.19,0.58 -1.32,1.34 c -0.2,-0.18 -0.41,-0.36 -0.61,-0.54 c -10.72,0.2 -21.44,0.33 -32.16,0.39 c -0.17,0 -0.34,0 -0.51,0 c -0.32,-0.54 -0.76,-0.98 -1.3,-1.3 c -0.33,-0.41 -0.68,-0.8 -1.06,-1.16 c -3.41,-3.63 -1.46,-10.19 3.33,-11.53 c 9.07,-0.97 21.87,-0.54 31.27,-0.24 Z M 477.64,152.12 c 0.46,0.45 1.01,0.74 1.64,0.87 c 0.41,0.14 0.73,0.38 0.99,0.72 c -0.01,0.63 0.29,1 0.9,1.09 c -0.09,0.65 0.18,1.04 0.81,1.17 c 0,0.21 0,0.42 0,0.63 c 0,1.42 0.04,2.85 0.12,4.28 c -0.06,0.44 -0.13,0.88 -0.19,1.32 c -0.41,0.04 -0.69,0.25 -0.83,0.63 c -0.07,0.44 -0.14,0.87 -0.21,1.31 c -0.47,0.03 -0.79,0.27 -0.96,0.7 c -0.58,0.31 -1,0.77 -1.25,1.39 c -0.23,-0.14 -0.47,-0.28 -0.7,-0.43 c -10.7,0.17 -21.4,0.27 -32.1,0.31 c -7.59,-3.92 -4.96,-15.2 4.63,-14.41 c 7.17,0.28 20.79,-0.59 27.15,0.42 Z M 223.26,198 c 0.01,16.5 0.01,33 0,49.5 c -0.43,14.81 19.68,23.6 20.43,41.17 c 0.11,20.58 0.22,41.17 0.36,61.74 c 0.35,0.47 0.83,0.68 1.42,0.63 c 7.31,0.04 14.61,-0.01 21.91,-0.16 c 0.46,-0.33 0.67,-0.78 0.63,-1.36 c -0.08,-20.67 -0.02,-41.33 0.18,-62 c 1.15,-16.63 21.99,-26.4 20.18,-41.02 c 0.08,-17.01 -0.01,-34.01 -0.25,-51 c -0.4,-0.5 -0.93,-0.73 -1.57,-0.69 c -20.36,0.01 -40.71,0.02 -61.07,0.01 c -2.44,-0.13 -2.31,1.24 -2.22,3.18 Z M 76.85,199.89 c 0.36,0.55 0.87,0.78 1.53,0.67 c -0.11,0.59 0.08,1.06 0.55,1.4 c 0.03,0.6 0.34,0.95 0.93,1.04 c 0.05,0.26 0.1,0.52 0.15,0.78 c 0.04,0.42 0.08,0.85 0.12,1.27 c -0.12,0.92 -0.09,1.84 0.1,2.75 c -0.11,0.46 -0.21,0.92 -0.32,1.38 c -0.69,0.36 -1,0.96 -0.92,1.78 c -0.52,0.29 -0.7,0.72 -0.53,1.31 c -0.77,-0.06 -1.33,0.26 -1.68,0.94 c -0.26,-0.14 -0.51,-0.29 -0.77,-0.43 c -0.57,0.13 -0.92,0.48 -1.06,1.04 c -0.19,0.05 -0.37,0.1 -0.55,0.15 c -0.67,0.08 -1.23,0.38 -1.67,0.89 c -0.46,0.1 -0.93,0.16 -1.4,0.18 c -0.65,0.02 -1.12,0.32 -1.4,0.89 c -0.21,0.02 -0.42,0.05 -0.63,0.08 c -1.13,-0.16 -2.02,0.21 -2.68,1.11 c -0.24,-0.09 -0.47,-0.19 -0.71,-0.29 c -0.52,0.22 -0.88,0.6 -1.09,1.12 c -0.15,0.03 -0.31,0.06 -0.47,0.09 c -0.47,0.02 -0.94,0.03 -1.41,0.05 c -0.95,-0.17 -1.52,0.21 -1.69,1.12 c -0.67,-0.03 -2.19,-0.42 -2.34,0.58 c -0.16,0.06 -0.33,0.13 -0.49,0.19 c -0.71,0.06 -1.23,0.4 -1.57,1.02 c -0.18,0.05 -0.36,0.1 -0.54,0.15 c -0.7,0.03 -1.25,0.32 -1.64,0.88 c -0.48,-0.02 -0.95,-0.03 -1.43,-0.05 c -0.65,0.09 -1.15,0.42 -1.5,0.99 c -1.82,0.23 -3.64,0.22 -5.44,-0.06 c -0.39,-0.5 -0.9,-0.83 -1.52,-0.98 c -4.94,-2.75 -4.76,-8.99 -0.79,-12.43 c 8.46,-2.51 24.71,-12.46 32.86,-9.61 Z M 440.81,199.13 c 0.68,0.69 1.52,0.99 2.51,0.92 c 1.16,0.22 2.29,0.56 3.38,1.02 c 0.4,0.52 0.93,0.86 1.58,1.02 c 0.17,0.06 0.33,0.12 0.5,0.19 c 0.74,0.61 1.61,0.9 2.61,0.86 c 1.1,0.28 2.18,0.6 3.26,0.96 c 0.4,0.49 0.91,0.82 1.54,0.98 c 0.24,0.03 0.48,0.06 0.72,0.09 c 0.12,1.05 1.64,0.81 2.36,0.79 c 1.11,0.39 2.23,0.77 3.35,1.14 c 0.44,0.48 0.98,0.81 1.61,0.98 c 1.96,0.27 3.57,1.16 4.82,2.67 c 0,0.55 0.25,0.91 0.74,1.09 c 0.14,0.41 0.28,0.81 0.42,1.22 c -0.16,1.59 -0.16,3.18 0,4.77 c -0.17,0.34 -0.34,0.67 -0.5,1.01 c -0.29,0.28 -0.49,0.61 -0.61,1 c -0.04,0.38 -0.08,0.77 -0.11,1.16 c -0.75,0.11 -1.19,0.54 -1.33,1.29 c -0.21,-0.19 -0.41,-0.39 -0.61,-0.58 c -0.63,0.25 -1.04,0.69 -1.24,1.33 c -1.47,0.23 -2.94,0.22 -4.41,-0.05 c -0.73,-0.75 -1.63,-1.11 -2.7,-1.09 c -1.11,-0.35 -2.22,-0.66 -3.35,-0.94 c -0.4,-0.54 -0.94,-0.89 -1.6,-1.05 c -0.23,0 -0.47,-0.01 -0.7,-0.02 c -0.56,-0.74 -1.32,-1.01 -2.28,-0.81 c -0.19,-0.03 -0.38,-0.06 -0.58,-0.09 c -0.36,-0.56 -0.88,-0.87 -1.56,-0.93 c -0.44,0 -0.88,-0.05 -1.31,-0.14 c -0.41,-0.5 -0.93,-0.83 -1.56,-0.98 c -1.18,-0.24 -2.32,-0.58 -3.44,-1.02 c -0.4,-0.51 -0.93,-0.82 -1.58,-0.93 c -0.21,-0.04 -0.43,-0.08 -0.65,-0.13 c -0.56,-0.77 -1.35,-1.09 -2.36,-0.94 c -0.84,-0.18 -1.64,-0.44 -2.41,-0.78 c -0.24,-0.74 -0.76,-1.12 -1.54,-1.14 c -0.63,-0.45 -1.08,-1.06 -1.35,-1.83 c -3.22,-6.05 1.66,-12.51 8.38,-11.04 Z M 189.31,370.05 c 0.08,5.76 -3.16,16.72 5.2,17.8 c 40.33,-0.01 80.67,0.04 121,0.12 c 9.89,0.72 7.41,-12.24 6.88,-18.13 c -1.36,-2.88 -3.65,-4.17 -6.87,-3.88 c -39.68,0.15 -79.36,0.15 -119.03,0 c -3.43,-0.37 -5.82,0.99 -7.18,4.09 Z M 189.23,407.03 c 0.09,5.06 -2.78,17.12 5.25,17.38 c 40.34,0 80.69,0.03 121.03,0.1 c 10.22,0.43 7.12,-11.19 6.98,-17.7 c -1.01,-2.77 -3,-4.11 -5.97,-4.03 c -40.01,0.13 -80.02,0.12 -120.03,-0.02 c -3.6,-0.5 -6.02,0.93 -7.26,4.27 Z M 199.3,456.95 c 0.98,2.94 3.04,4.35 6.18,4.22 c 34.01,-0.09 68.02,-0.12 102.03,-0.09 c 7.69,-0.57 5.04,-12.29 5.05,-17.28 c -0.94,-2.94 -2.98,-4.42 -6.1,-4.43 c -33.92,0.06 -67.84,0.08 -101.76,0.06 c -8.62,0.8 -5.18,11.82 -5.4,17.52 Z M 262.03,496.06 c 8.62,-2.91 14.03,-8.77 16.22,-17.6 c 0.43,-1.58 -0.16,-2.38 -1.76,-2.4 c -7.83,0.01 -15.66,0.02 -23.49,0.02 c -6.43,-0.07 -12.86,-0.01 -19.28,0.19 c -0.48,0.59 -0.57,1.25 -0.27,1.98 c 3.22,13.39 15.03,20.99 28.58,17.81 Z"></path></g><g><path fill="#ffc250" stroke="#ffc250" stroke-width="0.5" d="M 245.84,6.96 c 0.29,-0.07 0.58,-0.14 0.88,-0.2 c 6.35,0.05 12.69,0.09 19.04,0.13 c 0.16,1 0.31,2 0.45,3 c -133.83,28.71 -170.79,200.06 -59.5,281.02 c 8.4,5.98 16.76,9.75 22.1,19.13 c 0.05,13.43 0.03,26.84 -0.08,40.26 c -0.27,0.46 -0.68,0.69 -1.22,0.69 c -9.68,0.04 -19.36,0.06 -29.04,0.05 c -0.58,0.04 -1.03,-0.18 -1.35,-0.66 c -0.11,-10.62 -0.19,-21.25 -0.24,-31.88 c -2.07,-17.19 -11.71,-24.15 -25.46,-32.34 c -33.29,-23.73 -54.02,-55.63 -62.19,-95.7 c -14.52,-80 36.19,-155.87 115.45,-173.14 c 6.84,-2.32 21.57,0.16 21.16,-10.36 Z"></path></g><g><path fill="#6e60b7" stroke="#6e60b7" stroke-width="0.5" d="M 253,476.08 c 0.57,7.75 3.59,14.41 9.03,19.98 c -13.55,3.18 -25.36,-4.42 -28.58,-17.81 c -0.3,-0.73 -0.21,-1.39 0.27,-1.98 c 6.42,-0.2 12.85,-0.26 19.28,-0.19 Z"></path></g><g><path fill="#8479c1" stroke="#8479c1" stroke-width="0.5" d="M 253,476.08 c 7.83,0 15.66,-0.01 23.49,-0.02 c 1.6,0.02 2.19,0.82 1.76,2.4 c -2.19,8.83 -7.6,14.69 -16.22,17.6 c -5.44,-5.57 -8.46,-12.23 -9.03,-19.98 Z"></path></g><g><path fill="#fdce62" fill-opacity="0.427" d="M 265.97,5.77 c -0.07,0.38 -0.14,0.75 -0.21,1.12 c -6.35,-0.04 -12.69,-0.08 -19.04,-0.13 c 0.43,-0.56 1.02,-0.83 1.76,-0.8 c 5.83,-0.02 11.67,-0.08 17.49,-0.19 Z"></path></g><g><path fill="#795c26" fill-opacity="0.773" d="M 469.77,99.87 c 1.93,-0.33 0.77,3.61 1.21,4.63 c 0.06,0.93 -0.36,1.44 -1.26,1.53 c 0.56,-2.05 0.58,-4.11 0.05,-6.16 Z"></path></g><g><path fill="#a47d33" fill-opacity="0.522" d="M 80.06,109.69 c 1.12,0.15 0.94,2.14 0.98,2.91 c 0.03,0.85 -0.32,1.41 -1.07,1.68 c 0.03,-1.53 0.06,-3.06 0.09,-4.59 Z"></path></g><g><path fill="#765925" fill-opacity="0.722" d="M 62.94,218.09 c -0.06,0.26 -0.13,0.53 -0.19,0.8 c -0.48,0.18 -0.99,0.29 -1.5,0.32 c 0.17,-0.91 0.74,-1.29 1.69,-1.12 Z M 61.25,219.21 c -0.17,0.92 -1.68,0.6 -2.34,0.58 c 0.15,-1 1.67,-0.61 2.34,-0.58 Z"></path></g><g><path fill="#93702e" fill-opacity="0.667" d="M 79.91,209.18 c 0.28,0.94 -0.03,1.54 -0.92,1.78 c -0.08,-0.82 0.23,-1.42 0.92,-1.78 Z M 78.99,210.96 c -0.14,0.45 -0.31,0.89 -0.53,1.31 c -0.17,-0.59 0.01,-1.02 0.53,-1.31 Z M 78.46,212.27 c -0.49,0.43 -1.05,0.74 -1.68,0.94 c 0.35,-0.68 0.91,-1 1.68,-0.94 Z"></path></g><g><path fill="#95712f" fill-opacity="0.616" d="M 481.98,156.6 c 1.49,0.67 1,2.96 0.89,4.3 c -0.26,-0.01 -0.52,-0.02 -0.77,-0.02 c -0.08,-1.43 -0.12,-2.86 -0.12,-4.28 Z"></path></g><g><path fill="#a88035" fill-opacity="0.514" d="M 70.14,158.07 c 0.18,0.04 0.37,0.08 0.56,0.13 c 0.4,0.78 0.6,3.1 -0.66,3.11 c -0.03,-1.08 0,-2.16 0.1,-3.24 Z"></path></g><g><path fill="#7b5d26" fill-opacity="0.576" d="M 466.61,95.78 c 0.81,0.12 1.27,0.58 1.4,1.38 c -0.65,-0.27 -1.12,-0.73 -1.4,-1.38 Z M 468.01,97.16 c 0.61,0 0.88,0.31 0.82,0.9 c -0.33,-0.25 -0.6,-0.55 -0.82,-0.9 Z M 468.83,98.06 c 0.83,0.05 1.29,0.5 1.38,1.34 c -0.58,-0.32 -1.04,-0.77 -1.38,-1.34 Z"></path></g><g><path fill="#795c26" fill-opacity="0.643" d="M 76.85,199.89 c 0.57,0.09 1.08,0.32 1.53,0.67 c -0.66,0.11 -1.17,-0.12 -1.53,-0.67 Z M 78.38,200.56 c 0.27,0.43 0.46,0.89 0.55,1.4 c -0.47,-0.34 -0.66,-0.81 -0.55,-1.4 Z M 78.93,201.96 c 0.66,0.04 0.97,0.39 0.93,1.04 c -0.59,-0.09 -0.9,-0.44 -0.93,-1.04 Z"></path></g><g><path fill="#9b7631" fill-opacity="0.58" d="M 80.13,205.05 c 0.23,0.05 0.46,0.09 0.69,0.14 c 0.15,0.86 0.18,1.72 0.08,2.59 c -0.23,0.01 -0.45,0.01 -0.67,0.02 c -0.19,-0.91 -0.22,-1.83 -0.1,-2.75 Z"></path></g><g><path fill="#89692c" fill-opacity="0.624" d="M 463.4,110.96 c -0.29,1.1 -1.88,1 -2.77,0.98 c 0.75,-0.78 1.67,-1.11 2.77,-0.98 Z"></path></g><g><path fill="#826329" fill-opacity="0.663" d="M 455.24,113.99 c 0.03,1.1 -1.57,0.94 -2.27,0.8 c 0.57,-0.68 1.33,-0.95 2.27,-0.8 Z"></path></g><g><path fill="#96722e" fill-opacity="0.549" stroke="#96722e" stroke-width="0.5" stroke-opacity="0.549" d="M 450.28,115.97 c 0.02,1.07 -1.53,0.96 -2.24,0.85 c 0.03,-1.02 1.57,-0.8 2.24,-0.85 Z"></path></g><g><path fill="#a77e34" fill-opacity="0.522" stroke="#a77e34" stroke-width="0.5" stroke-opacity="0.522" d="M 480.87,164.14 c -0.05,0.57 -0.37,0.81 -0.96,0.7 c 0.17,-0.43 0.49,-0.67 0.96,-0.7 Z M 479.91,164.84 c -0.02,0.81 -0.44,1.27 -1.25,1.39 c 0.25,-0.62 0.67,-1.08 1.25,-1.39 Z"></path></g><g><path fill="#cf9a45" fill-opacity="0.188" stroke="#cf9a45" stroke-width="0.5" stroke-opacity="0.188" d="M 76.81,118.12 c 0.4,-0.06 0.79,-0.13 1.19,-0.2 c -0.09,0.68 -0.47,0.98 -1.15,0.91 c -0.01,-0.24 -0.02,-0.47 -0.04,-0.71 Z M 62.94,218.09 c 0.47,-0.02 0.94,-0.03 1.41,-0.05 c -0.33,0.65 -0.87,0.93 -1.6,0.85 c 0.06,-0.27 0.13,-0.54 0.19,-0.8 Z"></path></g><g><path fill="#936f2f" fill-opacity="0.565" stroke="#936f2f" stroke-width="0.5" stroke-opacity="0.565" d="M 69.3,216.01 c -0.09,1.09 -1.9,0.97 -2.68,1.11 c 0.66,-0.9 1.55,-1.27 2.68,-1.11 Z"></path></g><g><path fill="#b18738" fill-opacity="0.435" stroke="#b18738" stroke-width="0.5" stroke-opacity="0.435" d="M 470.29,106.64 c -0.12,0.8 -0.58,1.26 -1.37,1.38 c 0.27,-0.65 0.72,-1.11 1.37,-1.38 Z M 468.92,108.02 c -0.1,0.51 -0.41,0.79 -0.93,0.84 c 0.14,-0.47 0.45,-0.75 0.93,-0.84 Z"></path></g><g><path fill="#cda03c" fill-opacity="0.2" stroke="#cda03c" stroke-width="0.5" stroke-opacity="0.2" d="M 74.85,119.13 c 0.44,-0.12 0.88,-0.25 1.32,-0.37 c -0.11,0.76 -0.55,1.13 -1.31,1.12 c 0,-0.25 -0.01,-0.5 -0.01,-0.75 Z"></path></g><g><path fill="#a1782f" fill-opacity="0.192" stroke="#a1782f" stroke-width="0.5" stroke-opacity="0.192" d="M 77.58,105.97 c 0.77,0.18 1.32,0.63 1.67,1.33 c -0.78,-0.17 -1.33,-0.61 -1.67,-1.33 Z"></path></g><g><path fill="#cd9840" fill-opacity="0.282" stroke="#cd9840" stroke-width="0.5" stroke-opacity="0.282" d="M 70.01,156.62 c 0.46,0.42 0.69,0.94 0.69,1.58 c -0.19,-0.05 -0.38,-0.09 -0.56,-0.13 c -0.04,-0.48 -0.09,-0.97 -0.13,-1.45 Z"></path></g><g><path fill="#e1ad44" fill-opacity="0.267" stroke="#e1ad44" stroke-width="0.5" stroke-opacity="0.267" d="M 482.1,160.88 c 0.25,0 0.51,0.01 0.77,0.02 c -0.01,0.7 -0.32,1.13 -0.96,1.3 c 0.06,-0.44 0.13,-0.88 0.19,-1.32 Z"></path></g><g><path fill="#765925" fill-opacity="0.867" d="M 69.71,161.99 c 0.01,0.25 0.02,0.49 0.02,0.74 c -0.21,0.02 -0.43,0.03 -0.64,0.05 c 0.14,-0.31 0.35,-0.58 0.62,-0.79 Z"></path></g><g><path fill="#d7a742" fill-opacity="0.227" stroke="#d7a742" stroke-width="0.5" stroke-opacity="0.227" d="M 69.09,162.78 c 0.21,-0.02 0.43,-0.03 0.64,-0.05 c 0.16,0.68 -0.08,1.1 -0.73,1.28 c 0.03,-0.41 0.06,-0.82 0.09,-1.23 Z"></path></g><g><path fill="#bf933d" fill-opacity="0.361" stroke="#bf933d" stroke-width="0.5" stroke-opacity="0.361" d="M 481.08,162.83 c 0.24,-0.02 0.47,-0.04 0.71,-0.06 c 0.11,0.74 -0.19,1.2 -0.92,1.37 c 0.07,-0.44 0.14,-0.87 0.21,-1.31 Z"></path></g><g><path fill="#9a7731" fill-opacity="0.506" stroke="#9a7731" stroke-width="0.5" stroke-opacity="0.506" d="M 447.31,116.94 c -0.33,0.62 -0.86,0.9 -1.59,0.85 c 0.43,-0.46 0.96,-0.75 1.59,-0.85 Z"></path></g><g><path fill="#af8638" fill-opacity="0.463" stroke="#af8638" stroke-width="0.5" stroke-opacity="0.463" d="M 69,164.01 c -0.16,0.49 -0.49,0.82 -0.98,0.98 c 0.15,-0.51 0.48,-0.83 0.98,-0.98 Z"></path></g><g><path fill="#be923b" fill-opacity="0.322" stroke="#be923b" stroke-width="0.5" stroke-opacity="0.322" d="M 78.89,117.08 c -0.12,0.47 -0.42,0.75 -0.89,0.84 c 0.12,-0.47 0.41,-0.75 0.89,-0.84 Z"></path></g><g><path fill="#b98d3b" fill-opacity="0.341" stroke="#b98d3b" stroke-width="0.5" stroke-opacity="0.341" d="M 68.02,164.99 c -0.18,0.69 -0.62,1.14 -1.32,1.34 c 0.13,-0.76 0.57,-1.21 1.32,-1.34 Z"></path></g><g><path fill="#e4b54a" fill-opacity="0.149" stroke="#e4b54a" stroke-width="0.5" stroke-opacity="0.149" d="M 79.06,115.89 c 0.21,-0.05 0.42,-0.1 0.63,-0.15 c 0.16,0.73 -0.1,1.18 -0.8,1.34 c 0.06,-0.4 0.11,-0.8 0.17,-1.19 Z"></path></g><g><path fill="#84642a" fill-opacity="0.69" d="M 452.18,114.86 c -0.22,0.56 -0.62,0.92 -1.2,1.07 c 0.16,-0.61 0.56,-0.97 1.2,-1.07 Z"></path></g><g><path fill="#806129" fill-opacity="0.812" d="M 79.67,114.9 c 0,0.28 0.01,0.56 0.02,0.84 c -0.21,0.05 -0.42,0.1 -0.63,0.15 c 0.11,-0.39 0.31,-0.72 0.61,-0.99 Z"></path></g><g><path fill="#d0a143" fill-opacity="0.255" stroke="#d0a143" stroke-width="0.5" stroke-opacity="0.255" d="M 80.01,203.78 c 0.62,0.23 0.89,0.7 0.81,1.41 c -0.23,-0.05 -0.46,-0.09 -0.69,-0.14 c -0.04,-0.42 -0.08,-0.85 -0.12,-1.27 Z"></path></g><g><path fill="#c2913d" fill-opacity="0.263" stroke="#c2913d" stroke-width="0.5" stroke-opacity="0.263" d="M 458.18,113.01 c -0.24,0.73 -0.76,1.05 -1.54,0.98 c 0.34,-0.6 0.85,-0.92 1.54,-0.98 Z"></path></g><g><path fill="#846629" fill-opacity="0.627" d="M 460.01,111.76 c -0.14,0.64 -0.53,1.07 -1.16,1.28 c 0.2,-0.6 0.59,-1.02 1.16,-1.28 Z"></path></g><g><path fill="#e0ad47" fill-opacity="0.255" stroke="#e0ad47" stroke-width="0.5" stroke-opacity="0.255" d="M 80.23,207.8 c 0.22,-0.01 0.44,-0.01 0.67,-0.02 c -0.02,0.73 -0.35,1.2 -0.99,1.4 c 0.11,-0.46 0.21,-0.92 0.32,-1.38 Z"></path></g><g><path fill="#cb9c3e" fill-opacity="0.192" stroke="#cb9c3e" stroke-width="0.5" stroke-opacity="0.192" d="M 469.79,211.84 c 0.75,0.18 1.09,0.65 1.03,1.43 c -0.21,-0.07 -0.41,-0.14 -0.61,-0.21 c -0.14,-0.41 -0.28,-0.81 -0.42,-1.22 Z"></path></g><g><path fill="#785c26" fill-opacity="0.757" d="M 76.01,212.78 c -0.11,0.6 -0.46,0.95 -1.06,1.04 c 0.14,-0.56 0.49,-0.91 1.06,-1.04 Z"></path></g><g><path fill="#ca9a3f" fill-opacity="0.208" stroke="#ca9a3f" stroke-width="0.5" stroke-opacity="0.208" d="M 466.02,109.77 c -0.08,0.76 -0.5,1.19 -1.26,1.27 c 0.17,-0.66 0.59,-1.09 1.26,-1.27 Z"></path></g><g><path fill="#a07b33" fill-opacity="0.514" stroke="#a07b33" stroke-width="0.5" stroke-opacity="0.514" d="M 74.4,213.97 c -0.38,0.6 -0.93,0.9 -1.67,0.89 c 0.44,-0.51 1,-0.81 1.67,-0.89 Z"></path></g><g><path fill="#775924" fill-opacity="0.741" d="M 78.71,108.1 c 0.76,-0.07 1.14,0.27 1.13,1.03 c -0.47,-0.24 -0.85,-0.59 -1.13,-1.03 Z"></path></g><g><path fill="#866629" fill-opacity="0.659" d="M 71.33,215.04 c -0.36,0.46 -0.83,0.75 -1.4,0.89 c 0.28,-0.57 0.75,-0.87 1.4,-0.89 Z"></path></g><g><path fill="#8b6a2c" fill-opacity="0.584" d="M 65.91,216.83 c -0.02,0.72 -0.38,1.09 -1.09,1.12 c 0.21,-0.52 0.57,-0.9 1.09,-1.12 Z"></path></g><g><path fill="#c2963d" fill-opacity="0.247" stroke="#c2963d" stroke-width="0.5" stroke-opacity="0.247" d="M 466.81,109.03 c 0.39,-0.06 0.79,-0.11 1.18,-0.17 c -0.1,0.71 -0.5,1.04 -1.22,0.97 c 0.01,-0.27 0.03,-0.53 0.04,-0.8 Z"></path></g><g><path fill="#c8963d" fill-opacity="0.361" stroke="#c8963d" stroke-width="0.5" stroke-opacity="0.361" d="M 470.21,217.83 c 0.2,0.01 0.41,0.01 0.62,0.02 c 0.01,0.75 -0.36,1.08 -1.12,0.99 c 0.16,-0.34 0.33,-0.67 0.5,-1.01 Z"></path></g><g><path fill="#926d2d" fill-opacity="0.576" d="M 58.42,219.98 c -0.36,0.57 -0.89,0.91 -1.57,1.02 c 0.34,-0.62 0.86,-0.96 1.57,-1.02 Z"></path></g><g><path fill="#e0a84b" fill-opacity="0.161" stroke="#e0a84b" stroke-width="0.5" stroke-opacity="0.161" d="M 469.1,219.84 c 0.36,-0.06 0.72,-0.12 1.07,-0.18 c -0.04,0.77 -0.44,1.22 -1.18,1.34 c 0.03,-0.39 0.07,-0.78 0.11,-1.16 Z"></path></g><g><path fill="#c7973d" fill-opacity="0.231" stroke="#c7973d" stroke-width="0.5" stroke-opacity="0.231" d="M 56.31,221.15 c -0.41,0.55 -0.96,0.84 -1.64,0.88 c 0.39,-0.56 0.94,-0.85 1.64,-0.88 Z"></path></g><g><path fill="#cf9f3f" fill-opacity="0.208" stroke="#cf9f3f" stroke-width="0.5" stroke-opacity="0.208" d="M 468.99,221 c -0.14,0.74 -0.58,1.17 -1.33,1.29 c 0.14,-0.75 0.58,-1.18 1.33,-1.29 Z"></path></g><g><path fill="#a67e33" fill-opacity="0.427" stroke="#a67e33" stroke-width="0.5" stroke-opacity="0.427" d="M 53.24,221.98 c -0.27,0.63 -0.77,0.96 -1.5,0.99 c 0.35,-0.57 0.85,-0.9 1.5,-0.99 Z"></path></g><g><path fill="#916d2d" fill-opacity="0.616" d="M 467.05,221.71 c -0.04,0.8 -0.45,1.25 -1.24,1.33 c 0.2,-0.64 0.61,-1.08 1.24,-1.33 Z"></path></g><g><path fill="#8c6a2c" fill-opacity="0.565" d="M 69,154.73 c 0.57,0.27 0.88,0.72 0.95,1.37 c -0.54,-0.3 -0.86,-0.75 -0.95,-1.37 Z"></path></g><g><path fill="#eeebee" stroke="#eeebee" stroke-width="0.5" d="M 322.39,369.84 c -0.3,2.07 -0.59,4.14 -0.88,6.21 c -0.42,0.78 -1.08,1.11 -1.98,1 c -42.35,-0.01 -84.69,-0.02 -127.03,-0.05 c -4.22,0.44 -0.76,-5.42 -3.19,-6.95 c 1.36,-3.1 3.75,-4.46 7.18,-4.09 c 39.67,0.15 79.35,0.15 119.03,0 c 3.22,-0.29 5.51,1 6.87,3.88 Z M 322.49,406.81 c -0.36,1.85 -0.54,3.72 -0.54,5.61 c -0.48,0.62 -1.1,1.02 -1.88,1.2 c -6.18,0.43 -12.37,0.6 -18.57,0.51 c -35.96,0.09 -71.92,0.01 -107.87,-0.23 c -6.7,-0.55 -1.51,-4.83 -4.4,-6.87 c 1.24,-3.34 3.66,-4.77 7.26,-4.27 c 40.01,0.14 80.02,0.15 120.03,0.02 c 2.97,-0.08 4.96,1.26 5.97,4.03 Z M 312.56,443.8 c -0.46,1.84 -0.68,3.72 -0.68,5.63 c -0.31,0.48 -0.76,0.69 -1.35,0.62 c -36.35,0.33 -72.71,0.32 -109.06,-0.03 c -3.13,-0.41 -0.54,5.94 -2.17,6.93 c 0.22,-5.7 -3.22,-16.72 5.4,-17.52 c 33.92,0.02 67.84,0 101.76,-0.06 c 3.12,0.01 5.16,1.49 6.1,4.43 Z"></path></g><g><path fill="#e2dfe2" stroke="#e2dfe2" stroke-width="0.5" d="M 189.31,370.05 c 2.43,1.53 -1.03,7.39 3.19,6.95 c 42.34,0.03 84.68,0.04 127.03,0.05 c 0.9,0.11 1.56,-0.22 1.98,-1 c 0.29,-2.07 0.58,-4.14 0.88,-6.21 c 0.53,5.89 3.01,18.85 -6.88,18.13 c -40.33,-0.08 -80.67,-0.13 -121,-0.12 c -8.36,-1.08 -5.12,-12.04 -5.2,-17.8 Z M 189.23,407.03 c 2.89,2.04 -2.3,6.32 4.4,6.87 c 35.95,0.24 71.91,0.32 107.87,0.23 c 6.2,0.09 12.39,-0.08 18.57,-0.51 c 0.78,-0.18 1.4,-0.58 1.88,-1.2 c 0,-1.89 0.18,-3.76 0.54,-5.61 c 0.14,6.51 3.24,18.13 -6.98,17.7 c -40.34,-0.07 -80.69,-0.1 -121.03,-0.1 c -8.03,-0.26 -5.16,-12.32 -5.25,-17.38 Z M 312.56,443.8 c -0.01,4.99 2.64,16.71 -5.05,17.28 c -34.01,-0.03 -68.02,0 -102.03,0.09 c -3.14,0.13 -5.2,-1.28 -6.18,-4.22 c 1.63,-0.99 -0.96,-7.34 2.17,-6.93 c 36.35,0.35 72.71,0.36 109.06,0.03 c 0.59,0.07 1.04,-0.14 1.35,-0.62 c 0,-1.91 0.22,-3.79 0.68,-5.63 Z"></path></g><g><path fill="#413114" fill-opacity="0.906" d="M 33.93,166.18 c 10.72,-0.06 21.44,-0.19 32.16,-0.39 c 0.04,0.52 -0.17,0.91 -0.63,1.16 c -10,0.08 -19.99,0.08 -29.99,0.02 c -0.75,0.12 -1.26,-0.15 -1.54,-0.79 Z M 445.86,166.11 c 10.7,-0.04 21.4,-0.14 32.1,-0.31 c -0.06,0.87 -0.53,1.3 -1.42,1.29 c -9.01,-0.08 -18.02,-0.1 -27.03,-0.08 c -0.63,-0.11 -3.78,0.15 -3.65,-0.9 Z"></path></g><g><path fill="#725724" fill-opacity="0.682" d="M 444.38,118 c -0.55,0.64 -1.23,1.08 -2.04,1.34 c -0.37,-1.26 1.23,-1.37 2.04,-1.34 Z M 436.71,119.04 c 1.9,-0.18 3.77,-0.08 5.63,0.3 c -0.54,0.87 -3.01,0.62 -3.93,0.67 c -0.81,0.05 -1.38,-0.28 -1.7,-0.97 Z"></path></g><g><path fill="#6d5322" fill-opacity="0.839" d="M 470.21,213.06 c 0.2,0.07 0.4,0.14 0.61,0.21 c 0.26,1.52 0.27,3.05 0.01,4.58 c -0.21,-0.01 -0.42,-0.01 -0.62,-0.02 c -0.16,-1.59 -0.16,-3.18 0,-4.77 Z"></path></g><g><path fill="#493717" fill-opacity="0.69" d="M 466.01,96.18 c -1.78,-0.29 -3.57,-0.37 -5.37,-0.25 c 1.11,-0.95 2.41,-1.27 3.9,-0.97 c 0.86,-0.01 1.35,0.4 1.47,1.22 Z"></path></g><g><path fill="#705423" fill-opacity="0.624" d="M 69.69,119.09 c 1.72,-0.01 3.44,0 5.16,0.04 c 0,0.25 0.01,0.5 0.01,0.75 c -1.24,-0.09 -4.63,0.69 -5.17,-0.79 Z"></path></g><g><path fill="#5e481e" fill-opacity="0.631" d="M 446.7,201.07 c 0.69,0.09 1.22,0.43 1.58,1.02 c -0.65,-0.16 -1.18,-0.5 -1.58,-1.02 Z M 454.65,204.1 c 0.67,0.08 1.18,0.41 1.54,0.98 c -0.63,-0.16 -1.14,-0.49 -1.54,-0.98 Z M 458.7,221.9 c 1.07,-0.02 1.97,0.34 2.7,1.09 c -0.81,-0.06 -2.64,0.06 -2.7,-1.09 Z"></path></g><g><path fill="#453416" fill-opacity="0.753" d="M 51.37,96.03 c -1.59,0.12 -3.12,-0.1 -4.59,-0.68 c 1.01,-0.5 4.39,-0.82 4.59,0.68 Z"></path></g><g><path fill="#60491e" fill-opacity="0.612" d="M 48.77,111.06 c 1.07,-0.17 1.95,0.16 2.62,0.99 c -0.85,0.01 -2.46,0.2 -2.62,-0.99 Z M 44.78,221.93 c 0.62,0.15 1.13,0.48 1.52,0.98 c -0.74,-0.02 -1.24,-0.35 -1.52,-0.98 Z"></path></g><g><path fill="#614a1f" fill-opacity="0.596" d="M 73.76,104.08 c 0.68,0.06 1.2,0.37 1.55,0.94 c -0.65,-0.1 -1.16,-0.42 -1.55,-0.94 Z M 450.77,219.08 c 0.96,-0.2 1.72,0.07 2.28,0.81 c -0.77,0.11 -2.19,0.32 -2.28,-0.81 Z"></path></g><g><path fill="#624a1e" fill-opacity="0.82" d="M 480.27,153.71 c 0.35,0.32 0.65,0.68 0.9,1.09 c -0.61,-0.09 -0.91,-0.46 -0.9,-1.09 Z M 481.17,154.8 c 0.48,0.22 0.75,0.61 0.81,1.17 c -0.63,-0.13 -0.9,-0.52 -0.81,-1.17 Z"></path></g><g><path fill="#523e1a" fill-opacity="0.737" d="M 51.93,112.27 c 0.94,-0.37 1.62,-0.13 2.05,0.73 c -0.9,0.27 -1.59,0.03 -2.05,-0.73 Z"></path></g><g><path fill="#5a441c" fill-opacity="0.608" d="M 456.91,205.17 c 1.03,-0.37 1.82,-0.11 2.36,0.79 c -0.72,0.02 -2.24,0.26 -2.36,-0.79 Z"></path></g><g><path fill="#5b441c" fill-opacity="0.588" d="M 54.79,97.18 c 1.05,-0.36 1.9,-0.11 2.53,0.73 c -1.01,0.23 -1.85,-0.01 -2.53,-0.73 Z"></path></g><g><path fill="#5c461d" fill-opacity="0.655" d="M 56.76,113.8 c 0.95,-0.02 1.73,0.3 2.35,0.96 c -0.78,0.19 -2.4,0.24 -2.35,-0.96 Z"></path></g><g><path fill="#56421b" fill-opacity="0.647" d="M 448.78,202.28 c 0.83,-0.06 2.38,-0.23 2.61,0.86 c -1,0.04 -1.87,-0.25 -2.61,-0.86 Z"></path></g><g><path fill="#664d20" fill-opacity="0.557" d="M 60.75,99.11 c 0.72,0.06 1.25,0.4 1.6,1 c -0.65,-0.15 -1.18,-0.49 -1.6,-1 Z M 462.62,207.1 c 0.76,0 1.3,0.33 1.61,0.98 c -0.63,-0.17 -1.17,-0.5 -1.61,-0.98 Z"></path></g><g><path fill="#5c461e" fill-opacity="0.627" d="M 437.73,213.92 c 1.01,-0.15 1.8,0.17 2.36,0.94 c -0.77,0.09 -2.32,0.17 -2.36,-0.94 Z"></path></g><g><path fill="#533f1a" fill-opacity="0.678" d="M 440.81,199.13 c 0.78,0.02 2.35,-0.14 2.51,0.92 c -0.99,0.07 -1.83,-0.23 -2.51,-0.92 Z"></path></g><g><path fill="#57421b" fill-opacity="0.694" d="M 64.79,116.95 c 0.92,-0.08 1.7,0.18 2.34,0.76 c -0.7,0.19 -2.41,0.4 -2.34,-0.76 Z"></path></g><g><path fill="#55411a" fill-opacity="0.502" d="M 31.06,163.72 c 0.38,0.36 0.73,0.75 1.06,1.16 c -0.62,-0.13 -0.97,-0.52 -1.06,-1.16 Z M 32.12,164.88 c 0.54,0.32 0.98,0.76 1.3,1.3 c -0.84,-0.05 -1.27,-0.49 -1.3,-1.3 Z"></path></g><g><path fill="#5e471d" fill-opacity="0.682" d="M 67.66,117.87 c 0.69,0.17 1.19,0.57 1.5,1.19 c -0.64,-0.22 -1.14,-0.62 -1.5,-1.19 Z M 448.63,218.06 c 0.68,0.06 1.2,0.37 1.56,0.93 c -0.62,-0.14 -1.14,-0.45 -1.56,-0.93 Z"></path></g><g><path fill="#55401b" fill-opacity="0.702" d="M 67.81,102.25 c 0.79,-0.18 2.43,-0.25 2.43,0.93 c -0.94,-0.03 -1.75,-0.34 -2.43,-0.93 Z"></path></g><g><path fill="#664e20" fill-opacity="0.871" d="M 466.81,109.03 c -0.01,0.27 -0.03,0.53 -0.04,0.8 c -0.25,-0.02 -0.5,-0.04 -0.75,-0.06 c 0.13,-0.4 0.39,-0.64 0.79,-0.74 Z"></path></g><g><path fill="#624b1e" fill-opacity="0.561" d="M 52.67,96.07 c 0.73,0.04 1.26,0.38 1.6,1 c -0.65,-0.16 -1.18,-0.49 -1.6,-1 Z"></path></g><g><path fill="#6b5121" fill-opacity="0.569" d="M 477.64,152.12 c 0.75,-0.03 1.3,0.26 1.64,0.87 c -0.63,-0.13 -1.18,-0.42 -1.64,-0.87 Z"></path></g><g><path fill="#56411b" fill-opacity="0.478" d="M 42.99,107.78 c 0.5,0.33 0.94,0.72 1.33,1.18 c -0.69,-0.12 -1.13,-0.52 -1.33,-1.18 Z"></path></g><g><path fill="#6b5221" fill-opacity="0.871" d="M 76.81,118.12 c 0.02,0.24 0.03,0.47 0.04,0.71 c -0.22,-0.02 -0.45,-0.05 -0.68,-0.07 c 0.1,-0.33 0.31,-0.54 0.64,-0.64 Z"></path></g><g><path fill="#60481e" fill-opacity="0.941" d="M 481.91,162.2 c -0.04,0.19 -0.08,0.38 -0.12,0.57 c -0.24,0.02 -0.47,0.04 -0.71,0.06 c 0.14,-0.38 0.42,-0.59 0.83,-0.63 Z"></path></g><g><path fill="#5c461e" fill-opacity="0.643" d="M 65.65,101.08 c 0.68,0.1 1.2,0.45 1.56,1.03 c -0.63,-0.18 -1.15,-0.53 -1.56,-1.03 Z"></path></g><g><path fill="#6d5321" fill-opacity="0.58" d="M 59.71,114.91 c 0.67,0.17 1.21,0.54 1.61,1.09 c -0.75,-0.08 -1.28,-0.45 -1.61,-1.09 Z"></path></g><g><path fill="#59431c" fill-opacity="0.686" d="M 57.74,98.01 c 0.63,0.15 1.18,0.44 1.64,0.89 c -0.69,-0.04 -1.23,-0.34 -1.64,-0.89 Z"></path></g><g><path fill="#725724" fill-opacity="0.757" d="M 469.05,210.75 c 0.4,0.26 0.64,0.63 0.74,1.09 c -0.49,-0.18 -0.74,-0.54 -0.74,-1.09 Z"></path></g><g><path fill="#533e1b" fill-opacity="0.592" d="M 433.78,212 c 0.78,0.02 1.3,0.4 1.54,1.14 c -0.76,-0.05 -1.28,-0.43 -1.54,-1.14 Z"></path></g><g><path fill="#614a1f" fill-opacity="0.651" d="M 440.74,214.99 c 0.65,0.11 1.18,0.42 1.58,0.93 c -0.65,-0.1 -1.18,-0.41 -1.58,-0.93 Z"></path></g><g><path fill="#5c471c" fill-opacity="0.706" d="M 46.72,109.93 c 0.64,0.15 1.16,0.48 1.57,0.99 c -0.68,-0.09 -1.2,-0.42 -1.57,-0.99 Z"></path></g><g><path fill="#6c5220" fill-opacity="0.463" d="M 445.76,216.94 c 0.63,0.15 1.15,0.48 1.56,0.98 c -0.76,0.02 -1.28,-0.31 -1.56,-0.98 Z"></path></g><g><path fill="#6e5322" fill-opacity="0.902" d="M 469.71,218.84 c 0.15,0.27 0.31,0.55 0.46,0.82 c -0.35,0.06 -0.71,0.12 -1.07,0.18 c 0.12,-0.39 0.32,-0.72 0.61,-1 Z"></path></g><g><path fill="#684f21" fill-opacity="0.569" d="M 453.75,219.91 c 0.66,0.16 1.2,0.51 1.6,1.05 c -0.76,-0.02 -1.3,-0.37 -1.6,-1.05 Z"></path></g><g><path fill="#725725" fill-opacity="0.482" d="M 65.66,151.95 c 0.78,0.02 1.3,0.4 1.55,1.13 c -0.65,-0.2 -1.17,-0.58 -1.55,-1.13 Z"></path></g></svg>